<svg width="421" height="430" viewBox="0 0 421 430" fill="none" xmlns="http://www.w3.org/2000/svg">
<path d="M412 215C412 328.951 321.607 421 210.5 421C99.3931 421 9 328.951 9 215C9 101.049 99.3931 9 210.5 9C321.607 9 412 101.049 412 215Z" fill="white" stroke="white" stroke-width="18"/>
<path d="M199.069 304V187.818H226.45V304H199.069ZM212.835 171.329C208.499 171.329 204.767 169.892 201.641 167.017C198.514 164.093 196.951 160.588 196.951 156.504C196.951 152.369 198.514 148.864
 201.641 145.99C204.767 143.065 208.499 141.603 212.835 141.603C217.222 141.603 220.954 143.065 224.03 145.99C227.156 148.864 228.719 152.369 228.719 156.504C228.719 160.588 227.156 164.093 224.03
  167.017C220.954 169.892 217.222 171.329 212.835 171.329Z" fill="white"/>
</svg>
