<svg width="93" height="30" viewBox="0 0 93 30" fill="none" xmlns="http://www.w3.org/2000/svg">
<path d="M1.33619 8.72475L0.459829 6.21083L12.8427 4.21102L13.7191 6.72494L9.10309 7.47041L13.2541 19.3781L10.1032 19.8869L5.95216 7.97928L1.33619 8.72475Z" fill="#FF0000"/>
<path d="M18.7434 17.5413L15.2218 3.42862L20.9164 2.71908C22.0065 2.58326 22.9844 2.658 23.8501 2.94329C24.7193 3.2234 25.4426 3.68513 26.0197 4.32847C26.6004 4.96664 27.0072 5.75201 27.2399 6.68459C27.4737 7.62176 27.4682 8.45376 27.2232 9.1806C26.9771 9.90284 26.5064 10.492 25.8112 10.9481C25.1207 11.4036 24.221 11.7005 23.1121 11.8386L19.2993 12.3137L18.7009 9.91563L22.0204 9.50202C22.603 9.42943 23.0675 9.29103 23.4138 9.08683C23.7601 8.88263 23.9882 8.61263 24.0982 8.27682C24.2129 7.94043 24.2123 7.54023 24.0966 7.07624C23.9796 6.60765 23.7847 6.22457 23.5118 5.927C23.2437 5.62883 22.8939 5.42136 22.4627 5.30456C22.035 5.18259 21.5275 5.15819 20.9402 5.23137L18.8822 5.48779L21.7951 17.1611L18.7434 17.5413ZM24.9357 10.1477L30.1256 16.1231L26.7567 16.5429L21.6444 10.5578L24.9357 10.1477Z" fill="#FF0000"/>
<path d="M33.9096 15.9091L30.6204 16.1124L33.8449 1.36737L37.8005 1.12283L44.5923 15.2487L41.3032 15.452L36.2878 4.54028L36.1744 4.54729L33.9096 15.9091ZM33.0015 10.2478L40.7708 9.76749L41.0658 12.1499L33.2965 12.6302L33.0015 10.2478Z" fill="#FF0000"/>
<path d="M49.5368 0.454545L49.5368 15H46.4615L46.4615 0.454545H49.5368Z" fill="#FF0000"/>
<path d="M53.4069 14.997L55.1941 0.56179L58.2635 0.751549L56.7878 12.6705L63.0118 13.0553L62.7002 15.5716L53.4069 14.997Z" fill="#FF0000"/>
<path d="M64.8206 16.0101L68.3422 1.89734L78.0681 3.10917L77.4542 5.56925L70.78 4.73765L69.9409 8.10045L76.1147 8.8697L75.5009 11.3298L69.327 10.5605L68.4862 13.9302L75.1886 14.7653L74.5747 17.2254L64.8206 16.0101Z" fill="#FF0000"/>
<path d="M76.3035 17.5236L81.4607 3.92312L87.0992 4.99071C88.1785 5.19507 89.03 5.55321 89.6536 6.06513C90.2835 6.57351 90.6718 7.19983 90.8184 7.9441C90.9713 8.68482 90.8774 9.50454 90.5366 10.4033C90.1941 11.3064 89.6948 12.0447 89.0386 12.6179C88.3841 13.1868 87.603 13.5704 86.6951 13.7686C85.7919 13.9677 84.7913 13.9633 83.6934 13.7554L79.9182 13.0406L80.7945 10.7296L84.0813 11.3519C84.6581 11.4611 85.1658 11.4766 85.6044 11.3983C86.043 11.32 86.4124 11.1479 86.7126 10.8821C87.0175 10.6172 87.2547 10.2611 87.4243 9.81398C87.5955 9.3624 87.6445 8.9636 87.5713 8.61758C87.5027 8.27244 87.3056 7.98362 86.9799 7.75113C86.6605 7.51509 86.2101 7.34202 85.6286 7.23191L83.5909 6.8461L79.3251 18.0957L76.3035 17.5236ZM86.3684 12.7957L87.5735 19.6575L84.2378 19.0259L83.1096 12.1786L86.3684 12.7957Z" fill="#FF0000"/>
<path d="M25.417 29.5886L21.3042 20.5672L22.4593 20.4296L25.6803 27.7924L25.7719 27.7815L26.5116 19.9466L27.7952 19.7936L31.0527 27.1521L31.1444 27.1411L31.8474 19.3106L33.0026 19.173L31.9813 28.8062L30.8078 28.9461L27.5041 21.7603L27.4307 21.7691L26.5905 29.4488L25.417 29.5886Z" fill="#FF0000"/>
<path d="M36.4081 27.9523L35.21 28.0233L37.8985 18.3952L39.0783 18.3253L43.3207 27.5423L42.1225 27.6134L38.6482 19.8487L38.5744 19.8531L36.4081 27.9523ZM36.547 24.2453L41.3766 23.9589L41.4601 24.9711L36.6305 25.2575L36.547 24.2453Z" fill="#FF0000"/>
<path d="M42.9574 19.4711V18.4555L50.0483 18.4555V19.4711H47.0753V27.91L45.9304 27.91V19.4711H42.9574Z" fill="#FF0000"/>
<path d="M60.0897 21.5923L58.9468 21.5245C58.9063 21.1923 58.8118 20.897 58.6633 20.6385C58.5179 20.3802 58.3323 20.1596 58.1066 19.9767C57.8842 19.7909 57.6321 19.6465 57.3504 19.5435C57.0687 19.4405 56.7712 19.3797 56.4578 19.3611C55.8863 19.3272 55.3568 19.4407 54.8691 19.7015C54.3845 19.9625 53.9823 20.3655 53.6626 20.9106C53.346 21.4559 53.154 22.1365 53.0867 22.9524C53.0195 23.7683 53.0979 24.4649 53.3219 25.0422C53.5491 25.6197 53.8812 26.0663 54.3183 26.382C54.7584 26.6978 55.2642 26.8726 55.8356 26.9065C56.149 26.9251 56.4536 26.9 56.7495 26.8313C57.0454 26.7625 57.3185 26.6508 57.569 26.4961C57.8228 26.3386 58.0429 26.1405 58.2293 25.9019C58.419 25.6604 58.5611 25.3791 58.6554 25.058L59.7983 25.1257C59.6726 25.6022 59.4804 26.0239 59.2217 26.3907C58.963 26.7576 58.6536 27.0644 58.2937 27.3112C57.934 27.5549 57.538 27.7334 57.1057 27.8464C56.6765 27.9597 56.2238 28.0022 55.7476 27.9739C54.9427 27.9262 54.243 27.6874 53.6487 27.2577C53.0543 26.8279 52.6072 26.2404 52.3075 25.4952C52.0077 24.7501 51.8988 23.8806 51.9807 22.8868C52.0627 21.893 52.3132 21.0448 52.7324 20.3423C53.1515 19.6397 53.6906 19.1107 54.3497 18.7553C55.0088 18.3998 55.7409 18.246 56.5458 18.2937C57.022 18.322 57.4633 18.4175 57.8698 18.5803C58.2793 18.7433 58.642 18.9682 58.958 19.2551C59.2742 19.5389 59.5302 19.8777 59.7262 20.2716C59.9225 20.6623 60.0436 21.1026 60.0897 21.5923Z" fill="#FF0000"/>
<path d="M61.7532 29.085L63.299 19.7577L64.4358 19.8932L63.7475 24.0468L68.7533 24.6434L69.4416 20.4898L70.5784 20.6253L69.0327 29.9527L67.8958 29.8172L68.5872 25.6454L63.5814 25.0487L62.8901 29.2205L61.7532 29.085Z" fill="#FF0000"/>
</svg>
